<svg xmlns="http://www.w3.org/2000/svg" xmlns:xlink="http://www.w3.org/1999/xlink" version="1.1" x="0px" y="0px" viewBox="0 0 140 175" style="enable-background:new 0 0 140 140;" xml:space="preserve"><g><g><path d="M99.3694763,46.1141052c2.3012695,0.3168335,4.4252319-1.288208,4.7456055-3.5854492    c0.1551514-1.1123657-0.1329956-2.2186279-0.8100586-3.1153564c-0.677063-0.8962402-1.6635132-1.4750977-2.7758789-1.630249    c-0.1974487-0.0272217-0.3939209-0.0408325-0.5894165-0.0408325c-0.9077759,0-1.7883911,0.2932129-2.5259399,0.8508911    c-0.895752,0.677063-1.4750977,1.6629639-1.630249,2.7753296c-0.1551514,1.112854,0.1329956,2.2191772,0.8100586,3.1154175    C97.2707214,45.3800964,98.2571106,45.9588928,99.3694763,46.1141052z"/><path d="M99.9472656,46.7055664c-0.2158203,0-0.4335938-0.0146484-0.6533203-0.0449219l-0.0009766-0.0004883    c-1.2587891-0.175293-2.3740234-0.8305664-3.1396484-1.84375c-0.765625-1.015625-1.0917969-2.2670898-0.9160156-3.5239258    c0.1757813-1.2587891,0.8310547-2.3740234,1.8447266-3.1391602c1.0097656-0.7641602,2.2529297-1.0927734,3.5234375-0.9165039    c1.2587891,0.175293,2.3730469,0.8300781,3.1396484,1.84375c0.7666016,1.0151367,1.0917969,2.2666016,0.9160156,3.5244141    C104.3300781,44.9799805,102.2841797,46.7055664,99.9472656,46.7055664z M99.4453125,45.5683594    c2,0.2739258,3.8457031-1.1240234,4.1240234-3.1157227c0.1347656-0.9663086-0.1152344-1.9277344-0.7050781-2.7070313    c-0.5878906-0.7788086-1.4443359-1.2817383-2.4111328-1.4160156c-0.9755859-0.1352539-1.9296875,0.1162109-2.7060547,0.7036133    c-0.7792969,0.5878906-1.2832031,1.4443359-1.4179688,2.4116211c-0.1347656,0.965332,0.1162109,1.9267578,0.7050781,2.7070313    C97.6220703,44.9301758,98.4785156,45.4331055,99.4453125,45.5683594L99.4453125,45.5683594z"/></g><g><path d="M53.8779564,52.6642761c0-0.5698242,0.4614258-1.0317383,1.0317383-1.0317383    c0.5702515,0,1.0317383,0.4619141,1.0317383,1.0317383v8.7496948H84.056488v-8.7496948    c0-0.5698242,0.4614868-1.0317383,1.0317383-1.0317383c0.5703125,0,1.0317383,0.4619141,1.0317383,1.0317383v8.7496948h4.8444214    V49.4561462c0-4.1828613-2.4302979-8.0801392-6.1915283-9.9280396l-6.5239868-3.197998    c-0.4906616,0.8226929-1.3098145,2.253418-2.2286987,4.1033325c-0.5632324,1.1279297-1.4186401,2.0705566-2.4725952,2.7279663    c-1.0760498,0.6629639-2.3012695,1.012085-3.548645,1.012085c-2.5339966,0-4.8967285-1.4685059-6.021183-3.7415771    c-0.9118652-1.8483887-1.7279663-3.2791138-2.2186279-4.1018066l-6.5350952,3.1985474    c-3.7592163,1.8473511-6.1894531,5.7446289-6.1894531,9.9274902v11.9578247h4.8433838V52.6642761z"/><path d="M91.5166016,61.965332h-5.9482422v-9.3012695c0-0.2646484-0.2158203-0.4804688-0.4804688-0.4804688    s-0.4794922,0.2158203-0.4794922,0.4804688v9.3012695h-29.21875v-9.3012695c0-0.2646484-0.2148438-0.4804688-0.4794922-0.4804688    s-0.4804688,0.2158203-0.4804688,0.4804688v9.3012695h-5.9472656V49.4560547    c0-4.3916016,2.5507813-8.4824219,6.4980469-10.4223633l6.9912109-3.421875l0.2607422,0.4355469    c0.5166016,0.8662109,1.3251953,2.2875977,2.2392578,4.140625c1.0322266,2.0859375,3.2021484,3.434082,5.5273438,3.434082    c1.1445313,0,2.2714844-0.3217773,3.2597656-0.9301758c0.9658203-0.6025391,1.7509766-1.4697266,2.2685547-2.5048828    c0.9130859-1.8383789,1.7265625-3.2661133,2.2480469-4.1396484l0.2607422-0.4360352l6.9794922,3.421875    c3.9492188,1.9399414,6.5009766,6.0307617,6.5009766,10.4228516V61.965332z M86.671875,60.862793h3.7412109V49.4560547    c0-3.9746094-2.3095703-7.6772461-5.8837891-9.4326172l-6.0644531-2.9736328    c-0.5039063,0.8637695-1.1914063,2.1010742-1.9501953,3.6289063c-0.6083984,1.2182617-1.5332031,2.2382813-2.6748047,2.9506836    c-1.1650391,0.7172852-2.4921875,1.0952148-3.8408203,1.0952148c-2.7412109,0-5.2988281-1.5888672-6.515625-4.0478516    c-0.7792969-1.5786133-1.484375-2.8422852-1.9404297-3.6269531l-6.0771484,2.9741211    c-3.5712891,1.7553711-5.8798828,5.4580078-5.8798828,9.4321289V60.862793h3.7402344v-8.1987305    c0-0.8730469,0.7109375-1.5830078,1.5839844-1.5830078s1.5830078,0.7099609,1.5830078,1.5830078v8.1987305h27.0117188v-8.1987305    c0-0.8730469,0.7099609-1.5830078,1.5830078-1.5830078s1.5839844,0.7099609,1.5839844,1.5830078V60.862793z"/></g><g><path d="M69.9999695,30.7673626c6.0141602,0,10.895813-8.9990845,10.895813-14.8716421    c0-6.0081177-4.8876953-10.895813-10.895813-10.895813s-10.8958168,4.8876958-10.8958168,10.895813    C59.1041527,21.7682781,63.9858055,30.7673626,69.9999695,30.7673626z"/><path d="M70,31.3188477c-6.3183594,0-11.4472656-9.3325195-11.4472656-15.4233398    c0-6.3120117,5.1357422-11.4467773,11.4472656-11.4467773s11.4472656,5.1347656,11.4472656,11.4467773    C81.4472656,21.9863281,76.3183594,31.3188477,70,31.3188477z M70,5.5512695c-5.7041016,0-10.34375,4.640625-10.34375,10.3442383    c0,5.5244141,4.7333984,14.3208008,10.34375,14.3208008s10.34375-8.7963867,10.34375-14.3208008    C80.34375,10.1918945,75.7041016,5.5512695,70,5.5512695z"/></g><g><path d="M37.5151024,45.3039856c0.8967285,0.6776123,2.0009766,0.9632568,3.1153564,0.8101196    c2.2962646-0.3199463,3.9042969-2.4489136,3.5859375-4.7456665c-0.3204346-2.2967529-2.4463501-3.9078369-4.7466431-3.5853882    c-2.2962646,0.3198853-3.9042969,2.4488525-3.5848999,4.7460938C36.0400047,43.64151,36.6193504,44.6269226,37.5151024,45.3039856    z"/><path d="M40.0458984,46.7055664c-1.0322266,0-2.0292969-0.331543-2.8632813-0.9614258h-0.0009766    c-1.0126953-0.7666016-1.6669922-1.8808594-1.8427734-3.1386719c-0.3613281-2.5986328,1.4580078-5.0068359,4.0546875-5.3681641    c1.2617188-0.1787109,2.5097656,0.1489258,3.5244141,0.9165039c1.0136719,0.7666016,1.6689453,1.8813477,1.8447266,3.1386719    c0.3603516,2.5976563-1.4589844,5.0058594-4.0556641,5.3676758C40.4863281,46.690918,40.2646484,46.7055664,40.0458984,46.7055664    z M37.8466797,44.8642578c0.7783203,0.5859375,1.7363281,0.8374023,2.7089844,0.7036133    c1.9941406-0.277832,3.3916016-2.1279297,3.1152344-4.1235352c-0.1357422-0.965332-0.6386719-1.8217773-1.4179688-2.4111328    c-0.7792969-0.5898438-1.7392578-0.8393555-2.7070313-0.7041016c-1.9951172,0.2783203-3.3925781,2.128418-3.1152344,4.1245117    C36.5654297,43.4189453,37.0683594,44.2753906,37.8466797,44.8642578L37.8466797,44.8642578z"/></g><g><path d="M117.1960144,63.4814758l-0.631958-11.4338989l0.2927246,0.1466675    c0.1581421,0.0785522,0.3314819,0.1325073,0.5118408,0.1576538c0.7092896,0.0947266,1.3914185-0.2634888,1.7078247-0.8972168    c0.40802-0.8181763,0.0765381-1.8151245-0.7385864-2.2211914l-12.2458496-6.1373901    c-0.2137451,1.1425171-0.7232666,2.1569824-1.4472656,2.9780273l9.8444214,4.9335938    c-0.0151978,0.1079712-0.0388794,0.2130127-0.0324097,0.3275757l0.6712646,12.1461792H24.8149071    c0.0072632-0.0474854,0.0272217-0.0883789,0.0300293-0.1377563l0.6982422-11.9950562    c0.0070801-0.1187134-0.0167236-0.2284546-0.0354004-0.3395996l9.8469238-4.9351196    c-0.7237549-0.8210449-1.2332764-1.8352661-1.4468994-2.9777832l-12.2437134,6.1363525    c-0.3969727,0.197937-0.6912231,0.5369873-0.8312378,0.9561768c-0.1390381,0.4196167-0.1068115,0.8695068,0.0906372,1.2664795    c0.3173828,0.6342773,1.0025635,0.9909668,1.7088623,0.8967285c0.1783447-0.0251465,0.3526611-0.0791016,0.5158691-0.1602173    l0.2863159-0.1434937l-0.6470337,11.1152344c-0.0065918,0.1112061,0.0171509,0.2133789,0.0331421,0.3180542h-4.4926147v8.8701172    h5.8096313h91.7246094h5.8096313v-8.8701172H117.1960144z"/><path d="M122.2236328,72.902832H17.7763672v-9.9726563h4.4716797l0.5859375-10.0532227    c-0.0410156,0.0078125-0.0820313,0.0151367-0.1230469,0.0209961c-0.953125,0.1230469-1.8603516-0.3554688-2.2802734-1.1962891    c-0.2636719-0.5288086-0.3066406-1.1279297-0.1210938-1.6870117c0.1865234-0.5585938,0.5800781-1.0112305,1.1074219-1.2753906    l12.8994141-6.4643555l0.1337891,0.7202148c0.1884766,1.0112305,0.6445313,1.949707,1.3183594,2.7138672l0.4726563,0.5371094    L26.0957031,51.331543c-0.0009766,0.0161133-0.0009766,0.0322266-0.0019531,0.0488281l-0.6728516,11.5498047h89.1240234    L113.90625,51.3657227c0-0.0112305-0.0009766-0.0229492-0.0009766-0.0341797l-10.1484375-5.0849609l0.4746094-0.5371094    c0.6728516-0.7631836,1.1289063-1.7016602,1.3183594-2.7148438l0.1347656-0.7192383l12.9003906,6.4648438    c0.5253906,0.262207,0.9179688,0.715332,1.1044922,1.2753906c0.1855469,0.5595703,0.1435547,1.1582031-0.1201172,1.6850586    c-0.4208984,0.8422852-1.3349609,1.3251953-2.2744141,1.1977539c-0.0439453-0.0063477-0.0888672-0.0136719-0.1328125-0.0224609    l0.5556641,10.0541992h4.5058594V72.902832z M18.8798828,71.800293h102.2402344v-7.7675781h-4.4453125l-0.7138672-12.90625    l1.1435547,0.5751953c0.1035156,0.0517578,0.2197266,0.0874023,0.3408203,0.1044922    c0.4775391,0.0615234,0.9287109-0.1777344,1.1376953-0.5976563c0.1318359-0.2641602,0.1533203-0.5644531,0.0595703-0.8452148    c-0.0927734-0.2797852-0.2880859-0.5058594-0.5507813-0.6362305l-11.6279297-5.8276367    c-0.2128906,0.7124023-0.5390625,1.3833008-0.9667969,1.9853516l9.5947266,4.8081055l-0.0566406,0.394043    c-0.0205078,0.1318359-0.0292969,0.1850586-0.0273438,0.2158203l0.703125,12.7299805H24.1650391l0.1328125-0.7587891    l0.6943359-11.9575195c0.0029297-0.0385742-0.0078125-0.0981445-0.0195313-0.1669922l-0.0703125-0.4038086l0.3583984-0.2294922    l9.2412109-4.6318359c-0.4277344-0.6025391-0.7539063-1.2734375-0.9658203-1.9848633l-11.625,5.8261719    c-0.265625,0.1323242-0.4619141,0.3588867-0.5546875,0.637207c-0.09375,0.2802734-0.0722656,0.5805664,0.0605469,0.8457031    c0.2099609,0.4204102,0.6748047,0.65625,1.1425781,0.597168c0.1171875-0.0170898,0.234375-0.0532227,0.34375-0.1074219    l1.1376953-0.5708008l-0.703125,12.0683594c-0.0019531,0.0244141,0.0068359,0.0756836,0.015625,0.1298828l0.1064453,0.6416016    l-0.6396484,0.0654297h-3.9404297V71.800293z"/></g><g><path d="M31.7749901,134.9999084h76.4499512l6.4887085-60.5848389H25.2862816L31.7749901,134.9999084z M36.9921532,78.5692444    c0.1954956-0.2171021,0.4745483-0.3410645,0.7667847-0.3410645h64.4810791c0.2921753,0,0.5712891,0.1239624,0.7667236,0.3410645    l6.0574951,6.7249756c0.1964722,0.2181396,0.2901611,0.5088501,0.2589722,0.8005371l-4.1481323,38.7403564    c-0.0272217,0.2533569-0.1471558,0.4881592-0.3365479,0.6584473l-6.0574951,5.4317627    c-0.1893921,0.1697388-0.4352417,0.2634888-0.6891479,0.2634888H41.9070702c-0.2539063,0-0.4997559-0.09375-0.689209-0.2634888    l-6.0584717-5.4317627c-0.1893921-0.1702881-0.3093262-0.4050903-0.3365479-0.6584473l-4.1481323-38.7403564    c-0.03125-0.291687,0.0625-0.5823975,0.2589722-0.8005371L36.9921532,78.5692444z"/><path d="M108.7197266,135.5512695H31.2802734l-6.6074219-61.6875h90.6542969L108.7197266,135.5512695z M32.2705078,134.4487305    h75.4589844l6.3710938-59.4824219H25.8994141L32.2705078,134.4487305z M98.0917969,131.7402344H41.9072266    c-0.3916016,0-0.7666016-0.1435547-1.0576172-0.4042969l-6.0585938-5.4316406    c-0.2929688-0.2631836-0.4755859-0.6225586-0.5166016-1.012207l-4.1474609-38.7387695    c-0.0488281-0.4467773,0.0966797-0.8945313,0.3974609-1.2280273l6.0576172-6.7250977    c0.2998047-0.3325195,0.7285156-0.5234375,1.1767578-0.5234375h64.4814453c0.4482422,0,0.8769531,0.190918,1.1767578,0.5239258    l6.0576172,6.7246094c0.2998047,0.3334961,0.4453125,0.78125,0.3964844,1.2280273l-4.1484375,38.7402344    c-0.0419922,0.390625-0.2246094,0.7490234-0.5146484,1.0102539l-6.0585938,5.4321289    C98.8583984,131.5966797,98.4833984,131.7402344,98.0917969,131.7402344z M37.7587891,78.7792969    c-0.1357422,0-0.265625,0.0581055-0.3564453,0.1586914v0.0004883L31.34375,85.6635742    c-0.0917969,0.1010742-0.1347656,0.2368164-0.1210938,0.3725586l4.1484375,38.7402344    c0.0126953,0.1191406,0.0683594,0.2275391,0.1572266,0.3071289l6.0576172,5.4311523    c0.0878906,0.0791016,0.2021484,0.1230469,0.3212891,0.1230469h56.1845703c0.1191406,0,0.2333984-0.0439453,0.3212891-0.1230469    l6.0576172-5.4316406c0.0878906-0.0786133,0.1425781-0.1879883,0.15625-0.3071289l4.1484375-38.7397461    c0.0136719-0.1357422-0.0292969-0.2714844-0.1201172-0.3725586l-6.0585938-6.7250977    c-0.0908203-0.1010742-0.2207031-0.1591797-0.3564453-0.1591797H37.7587891z"/></g></g><text x="0" y="155" fill="#000000" font-size="5px" font-weight="bold" font-family="'Helvetica Neue', Helvetica, Arial-Unicode, Arial, Sans-serif">Created by DinosoftLab</text><text x="0" y="160" fill="#000000" font-size="5px" font-weight="bold" font-family="'Helvetica Neue', Helvetica, Arial-Unicode, Arial, Sans-serif">from the Noun Project</text></svg>