<svg height='100px' width='100px'  fill="#000000" xmlns="http://www.w3.org/2000/svg" xmlns:xlink="http://www.w3.org/1999/xlink" version="1.1" x="0px" y="0px" viewBox="0 0 128 128" style="enable-background:new 0 0 128 128;" xml:space="preserve"><g><path d="M30.9567261,26.9057007l0.9658203,0.1420898c-1.1577759,0.9959717-1.8937378,2.46875-1.8937378,4.1157837   c0,1.6651001,0.7510986,3.1533203,1.9310303,4.1495361c-0.7467041,0.9302368-1.1958618,2.1096191-1.1958618,3.3953247   c0,0.9588623,0.2506104,1.8582764,0.6867065,2.6401978c-0.8348389,0.9549561-1.3445435,2.201355-1.3445435,3.569458   c0,2.9993896,2.4315186,5.4309082,5.4309082,5.4309082c2.8566895,0,5.1931152-2.2069092,5.4095459-5.0080566   C44.1390991,48.2271729,48.3572998,50,53,50c9.9411621,0,18-8.0588989,18-18c0-1.6213379-0.2341309-3.1845703-0.6360474-4.6789551   c2.9147949-0.2393799,5.9159546-2.6894531,7.3244629-4.7889404c1.1065674-1.6495361,0.7266235-3.8754883-0.84198-5.0940552   l-0.015564-0.012146c-1.4475098-1.1245117-3.4532471-0.9984741-4.8498535,0.1886597   c-0.4822998,0.4099121-0.9702148,0.7180176-1.3633423,0.9337769c-0.4673462,0.2564697-1.0454102,0.1611328-1.4039917-0.2333984   h-0.000061c-0.4473267-0.4920654-0.3799438-1.2511597,0.137085-1.6694946   c0.2297363-0.1859131,0.4837036-0.4121704,0.7462769-0.682373c1.7406616-1.7910767,1.4698486-4.7225342-0.5455933-6.1976318   c-1.4146729-1.0353394-3.2946167-1.0142822-4.7750244-0.0753784c-3.0258179,1.9190063-7.3914795,1.7994995-7.3914795,1.7994995   s-10.4396973-0.7255249-15.9083252,3.4182129c-2.8208008,2.1372681-6.465271,5.2195435-10.6539917,6.1383667   c-1.3909302,0.3051147-2.4077759,1.4923706-2.4077759,2.9163208   C28.4147949,25.4381714,29.4966431,26.6908569,30.9567261,26.9057007z M53,48   c-5.0460815,0-9.5466309-2.3540039-12.4813232-6.0148926c-1.2595825-1.5713501-2.2314453-3.3807983-2.8294678-5.3539429   c0.9458618-0.3696899,1.8439941-0.8338623,2.6915283-1.3826294c5.4759521-3.5455322,8.9281616-10.3867798,10.7233276-14.9326172   c2.1533203,2.9204712,7.1862183,7.5822144,17.4038696,7.817749C68.8175659,29.3743896,69,30.6647949,69,32   C69,40.8223877,61.8224487,48,53,48z"></path><path d="M117.5,45c-0.8284302,0-1.5-0.6715698-1.5-1.5s-0.6715698-1.5-1.5-1.5H114v-2h-1V29h1v-3h2.3549194   C117.2634277,26,118,25.2634277,118,24.3548584c0-0.6500244-0.3828125-1.2391357-0.9768066-1.5032349l-15.8548584-7.0489502   c-0.4254761-0.1891479-0.9111938-0.1891479-1.3366699,0l-15.8548584,7.0489502C83.3828125,23.1157227,83,23.704834,83,24.3548584   C83,25.2634277,83.7365723,26,84.6450806,26H87v3h1v11h-1v2h-0.5c-0.8284302,0-1.5,0.6715698-1.5,1.5S84.3284302,45,83.5,45   S82,45.6715698,82,46.5v1c0,0.8284302,0.6715698,1.5,1.5,1.5h34c0.8284302,0,1.5-0.6715698,1.5-1.5v-1   C119,45.6715698,118.3284302,45,117.5,45z M93,40V29h1v-3h3v3h1v11h-1v2h-3v-2H93z M103,40V29h1v-3h3v3h1v11h-1v2h-3v-2H103z"></path><path d="M98.4603882,102h-4.1412354l-8.7685547-33.5483398c-1.7075806-6.53302-6.135498-12.1425781-12.3057861-14.8855591   c-0.7249756-0.3222656-1.4700928-0.6073608-2.2329712-0.8530884l-2.2523804-0.7254639   c-2.1331177-0.6870117-4.4713135-0.1280518-6.0630493,1.4495239l-2.1259155,2.1069336   C58.7423706,57.355835,56.3875122,58.3078003,54,58.4193726v12.2717896l5.8535156-3.0681152V63.484375   c0-0.4257812,0.2695312-0.8046875,0.671875-0.9443359l4.8193359-1.6748047v-5.3544922c0-0.5527344,0.4477539-1,1-1s1,0.4472656,1,1   v6.0654297c0,0.4257812-0.2695312,0.8046875-0.671875,0.9443359l-4.8193359,1.6748047v4.0322266   c0,0.3720703-0.206543,0.7128906-0.5356445,0.8857422L54,72.9494629V102h-1h-1V72.7855835l-7.0048828-3.6723022   c-0.3291016-0.1728516-0.5356445-0.5136719-0.5356445-0.8857422v-4.0322266l-4.8198242-1.6748047   c-0.4023438-0.1396484-0.671875-0.5185547-0.671875-0.9443359v-6.0654297c0-0.5527344,0.4477539-1,1-1s1,0.4472656,1,1v5.3544922   l4.8198242,1.6748047c0.4023438,0.1396484,0.671875,0.5185547,0.671875,0.9443359v4.1386719L52,70.5273438V58.3141479   c-1.980896-0.305542-3.8894043-1.1977539-5.4345703-2.697876l-2.3026733-2.2355347   c-1.59198-1.5455322-3.9069214-2.0863647-6.0188599-1.4061279l-2.2926636,0.7384033   c-6.1029053,1.9656982-11.0709229,6.4523926-13.6462402,12.3240967v0.000061   c-1.661438,3.7880859-2.3098755,7.9428711-1.8818359,12.0570679L23.0145264,102H7.5396729   c-1.486084,0-2.453125,1.5632935-1.7895508,2.8930054l7.4851074,15C13.5737305,120.5713501,14.2666626,121,15.0247803,121H53   h37.9752197c0.7581177,0,1.4511108-0.4286499,1.7896118-1.1069946l7.4851074-15   C100.9134521,103.5632935,99.9464111,102,98.4603882,102z M45.5,111.5c0-4.135498,3.364502-7.5,7.5-7.5s7.5,3.364502,7.5,7.5   S57.135498,119,53,119S45.5,115.635498,45.5,111.5z M38.0048218,104h1.6461792h7.5325317   C44.9457397,105.7380371,43.5,108.4472046,43.5,111.5s1.4457397,5.7619629,3.6835327,7.5H15.0247803l-7.4851074-15H38.0048218z    M62.5,111.5c0-3.0527954-1.4457397-5.7619629-3.6835327-7.5h17.0119019h0.7617188h21.8703003l-7.4851685,15H58.8164673   C61.0542603,117.2619629,62.5,114.5527954,62.5,111.5z M72.0961914,88.1640625   c-0.0507812-0.2441406-0.0087891-0.4980469,0.1176758-0.7119141c2.6230469-4.4482422,3.0063477-12.2910156,3.0097656-12.3691406   c0.0249023-0.5517578,0.5180664-0.9824219,1.0439453-0.9541016c0.5517578,0.0253906,0.9790039,0.4921875,0.9541016,1.0439453   c-0.0151367,0.3330078-0.3896484,8.0478516-3.090332,12.953125L77.0172119,102h-2.0429077L72.0961914,88.1640625z    M35.4628906,75.8447266c-0.046875-0.5498047,0.3608398-1.0341797,0.9111328-1.0810547   c0.5605469-0.0576172,1.0341797,0.3603516,1.0820312,0.9111328L39.7077026,102h-2.0077515L35.4628906,75.8447266z"></path></g></svg>